<svg 
   viewBox="0 0 24 24" 
   aria-hidden="true" 
   xmlns="http://www.w3.org/2000/svg"
   style="display: inline-block; max-width: 100%; -moz-user-select: none; -webkit-user-select: none; user-select: none; vertical-align: text-bottom; color: rgba(231, 233, 234, 1.00); height: 1.75rem; width: 1.75rem;"
>
   <g>
      <g clip-path="url(#26-clip0_2592_269)" clip-rule="evenodd">
         <path 
            d="M18 4.1H6c-1.05 0-1.9.85-1.9 1.9v12c0 1.05.85 1.9 1.9 1.9h12c1.05 0 1.9-.85 1.9-1.9V6c0-1.05-.85-1.9-1.9-1.9zM6 2h12c2.21 0 4 1.79 4 4v12c0 2.21-1.79 4-4 4H6c-2.21 0-4-1.79-4-4V6c0-2.21 1.79-4 4-4z" 
            style="fill: currentColor;"
         ></path>
         <path 
            d="M6.68 17.8l8.108-11.58h2.532L9.21 17.8H6.68z" 
            style="fill: currentColor;"
         ></path>
      </g>
      <defs>
         <clipPath id="26-clip0_2592_269">
            <rect height="20" rx="1" width="20" x="2" y="2"></rect>
         </clipPath>
      </defs>
   </g>
</svg>
