<svg 
   viewBox="0 0 24 24" 
   aria-hidden="true" 
   xmlns="http://www.w3.org/2000/svg" 
   style="display: inline-block; max-width: 100%; -moz-user-select: none; -webkit-user-select: none; user-select: none; vertical-align: text-bottom; color: rgba(231, 233, 234, 1.00); height: 1.75rem; width: 1.75rem;"
>
   <g>
      <path 
         d="M21.591 7.146L12.52 1.157c-.316-.21-.724-.21-1.04 0l-9.071 5.99c-.26.173-.409.456-.409.757v13.183c0 .502.418.913.929.913h6.638c.511 0 .929-.41.929-.913v-7.075h3.008v7.075c0 .502.418.913.929.913h6.639c.51 0 .928-.41.928-.913V7.904c0-.301-.158-.584-.408-.758zM20 20l-4.5.01.011-7.097c0-.502-.418-.913-.928-.913H9.44c-.511 0-.929.41-.929.913L8.5 20H4V8.773l8.011-5.342L20 8.764z" 
         style="fill: currentColor;"
      ></path>
   </g>
</svg>
