<svg 
   viewBox="0 0 24 24" 
   aria-hidden="true" 
   xmlns="http://www.w3.org/2000/svg"
   style="display: inline-block; max-width: 100%; -moz-user-select: none; -webkit-user-select: none; user-select: none; vertical-align: text-bottom; color: rgba(231, 233, 234, 1.00); height: 1.75rem; width: 1.75rem;"
>
   <g>
      <path 
         d="M1.998 5.5c0-1.381 1.119-2.5 2.5-2.5h15c1.381 0 2.5 1.119 2.5 2.5v13c0 1.381-1.119 2.5-2.5 2.5h-15c-1.381 0-2.5-1.119-2.5-2.5v-13zm2.5-.5c-.276 0-.5.224-.5.5v2.764l8 3.638 8-3.636V5.5c0-.276-.224-.5-.5-.5h-15zm15.5 5.463l-8 3.636-8-3.638V18.5c0 .276.224.5.5.5h15c.276 0 .5-.224.5-.5v-8.037z" 
         style="fill: currentColor;"
      ></path>
   </g>
</svg>
